<svg xmlns="http://www.w3.org/2000/svg" viewBox="0 0 24 24"><g><path d="M14 17.18a1.26 1.26 0 0 0-1.52.91 4.5 4.5 0 1 1-7.44-4.37 1.25 1.25 0 0 0-1.71-1.83 7 7 0 1 0 11.59 6.81 1.26 1.26 0 0 0-.92-1.52Z" fill="currentColor"></path><path d="m21.42 18.52-1.42.24a.5.5 0 0 1-.56-.36l-1.43-5a1.25 1.25 0 0 0-1.41-.89c-.2 0-4.31.71-6.69 1.14a.45.45 0 0 1-.39-.09.49.49 0 0 1-.2-.34l-.15-1.45a.49.49 0 0 1 .41-.54l4.55-.79A1.25 1.25 0 1 0 13.66 8l-4.32.74a.49.49 0 0 1-.34-.1.48.48 0 0 1-.19-.35l-.26-1.95a.5.5 0 0 1 .21-.46 3.25 3.25 0 1 0-3 .41.48.48 0 0 1 .32.41l.82 7.65a2.24 2.24 0 0 0 2.66 1.92c1.36-.27 4.13-.74 5.88-1a.5.5 0 0 1 .56.35l1.43 5a1.25 1.25 0 0 0 1.2.91c.18 0 3-.49 3.21-.52a1.25 1.25 0 1 0-.41-2.46Z" fill="currentColor"></path></g></svg>