<svg xmlns="http://www.w3.org/2000/svg" viewBox="0 0 24 24"><g><path d="M22.41 10.57a5.19 5.19 0 0 0-7.32 0l-2.29 2.3-2.3 2.3a5.18 5.18 0 0 0 7.32 7.32l2.3-2.3 2.29-2.3a5.17 5.17 0 0 0 0-7.32Zm-4.77 9.27-1.23 1.23a3.25 3.25 0 0 1-4.49 0 3.18 3.18 0 0 1 0-4.49l1.25-1.23a.48.48 0 0 1 .7 0l1.9 1.89 1.89 1.89a.5.5 0 0 1 .14.35.49.49 0 0 1-.16.36Zm2.47-7.56a.52.52 0 0 1-.66.27 1.8 1.8 0 0 0-2 .39.51.51 0 0 1-.36.15.5.5 0 0 1-.35-.15.51.51 0 0 1 0-.71 2.84 2.84 0 0 1 3.07-.61.51.51 0 0 1 .3.66Z" fill="currentColor"></path><path d="M.57 5.75H12.3a.53.53 0 0 0 .39-.18.53.53 0 0 0 .1-.42 6.5 6.5 0 0 0-12.71 0 .49.49 0 0 0 .1.42.52.52 0 0 0 .39.18Z" fill="currentColor"></path><path d="M12.79 7.86a.53.53 0 0 0-.1-.42.51.51 0 0 0-.39-.19H.57a.49.49 0 0 0-.39.19.48.48 0 0 0-.1.42 6.5 6.5 0 0 0 12.71 0Z" fill="currentColor"></path></g></svg>