<svg xmlns="http://www.w3.org/2000/svg" fill="none" viewBox="-1.5 -1.5 48 48"><g id="gallery-2--pages-filter-picture-pagination-image"><path id="Rectangle 1096" stroke="currentColor" stroke-linecap="round" stroke-linejoin="round" d="M33.256874999999994 6.5625c-0.5175000000000001 -1.8975 -2.146875 -3.2681250000000004 -4.1934375 -3.4153124999999998C26.6671875 2.9746875 23.123437499999998 2.8125 18.28125 2.8125c-4.813125 0 -8.341875 0.16031250000000002 -10.7371875 0.331875 -2.3971875 0.170625 -4.2299999999999995 2.0025 -4.400625 4.400625C2.971875 9.9403125 2.8125 13.47 2.8125 18.28125c0 4.8421875 0.163125 8.385000000000002 0.33468749999999997 10.78125 0.1471875 2.0465625 1.51875 3.6768750000000003 3.4153124999999998 4.1934375" stroke-width="3"></path><path id="Rectangle 1097" stroke="currentColor" stroke-linecap="round" stroke-linejoin="round" d="M11.581875 15.9815625c0.170625 -2.3971875 2.0025 -4.2281249999999995 4.400625 -4.3996875C18.376875000000002 11.409375 21.9065625 11.25 26.71875 11.25s8.3409375 0.16031250000000002 10.73625 0.331875c2.398125 0.170625 4.2299999999999995 2.0025 4.400625 4.400625 0.1715625 2.3953125 0.331875 5.925000000000001 0.331875 10.73625 0 4.8121875 -0.16031250000000002 8.3409375 -0.331875 10.7371875 -0.170625 2.3971875 -2.0025 4.2281249999999995 -4.400625 4.3996875 -2.3953125 0.1715625 -5.925000000000001 0.331875 -10.73625 0.331875 -4.8121875 0 -8.3409375 -0.16031250000000002 -10.7371875 -0.331875 -2.3971875 -0.170625 -4.2281249999999995 -2.0025 -4.3996875 -4.400625C11.409375 35.060625 11.25 31.530937500000004 11.25 26.71875s0.16031250000000002 -8.3409375 0.331875 -10.7371875Z" stroke-width="3"></path><path id="Intersect" stroke="currentColor" stroke-linecap="round" stroke-linejoin="round" d="M42.043124999999996 34.1146875c-2.1140624999999997 -1.9818749999999998 -3.6374999999999997 -3.301875 -4.695 -4.16625 -1.254375 -1.0265625 -2.908125 -1.175625 -4.2590625 -0.2746875 -1.0406250000000001 0.69375 -2.469375 1.753125 -4.3359375 3.3553125 -2.775 -2.6540624999999998 -4.6875 -4.321875 -5.9418750000000005 -5.3484375 -1.254375 -1.0265625 -2.908125 -1.1746874999999999 -4.2590625 -0.2746875 -1.51875 1.0125000000000002 -3.8653125000000004 2.805 -7.18875 5.923125" stroke-width="3"></path><path id="Ellipse 35" stroke="currentColor" stroke-linecap="round" stroke-linejoin="round" d="M30 20.625a2.8125 2.8125 0 1 0 5.625 0 2.8125 2.8125 0 1 0 -5.625 0" stroke-width="3"></path></g></svg>