<svg xmlns="http://www.w3.org/2000/svg" fill="none" viewBox="-0.5 -0.5 14 14"><g id="hand-held-tablet-writing--tablet-kindle-device-electronics-ipad-writing-digital-paper-notepad"><path id="Vector" stroke="currentColor" stroke-linecap="round" stroke-linejoin="round" d="M7.428571428571429 0.4642857142857143H1.3928571428571428c-0.5128360714285715 0 -0.9285714285714286 0.41573535714285714 -0.9285714285714286 0.9285714285714286v10.214285714285715c0 0.51285 0.41573535714285714 0.9285714285714286 0.9285714285714286 0.9285714285714286h8.357142857142858c0.51285 0 0.9285714285714286 -0.4157214285714286 0.9285714285714286 -0.9285714285714286V7.428571428571429" stroke-width="1"></path><path id="Vector_2" stroke="currentColor" stroke-linecap="round" stroke-linejoin="round" d="M0.4642857142857143 9.75h10.214285714285715" stroke-width="1"></path><path id="Vector_3" stroke="currentColor" stroke-linecap="round" stroke-linejoin="round" d="M3.25 2.7857142857142856h1.8571428571428572" stroke-width="1"></path><path id="Vector_4" stroke="currentColor" stroke-linecap="round" stroke-linejoin="round" d="M3.25 5.107142857142858h0.9285714285714286" stroke-width="1"></path><path id="Vector_5" stroke="currentColor" stroke-linecap="round" stroke-linejoin="round" d="m8.35170142857143 6.969671428571429 -2.7857142857142856 0.5014285714285714 0.4642857142857143 -2.822857142857143L9.958092857142857 0.7389552857142857c0.08635714285714285 -0.08703314285714286 0.18905714285714287 -0.1561132857142857 0.30225 -0.20325592857142857C10.373442857142857 0.4885567142857143 10.494807142857143 0.4642857142857143 10.617378571428572 0.4642857142857143c0.12266428571428571 0 0.24402857142857143 0.024271 0.35712857142857146 0.07141364285714286 0.11319285714285714 0.04714264285714286 0.21589285714285716 0.11622278571428571 0.3021571428571429 0.20325592857142857l0.9842857142857143 0.9842875714285716c0.0871 0.08632000000000001 0.1561857142857143 0.18902 0.20326428571428573 0.30217571428571427 0.04717142857142857 0.11315571428571429 0.07140714285714285 0.23452928571428575 0.07140714285714285 0.35711 0 0.12258071428571428 -0.024235714285714288 0.24395428571428573 -0.07140714285714285 0.3571007142857143 -0.047078571428571435 0.11315571428571429 -0.1161642857142857 0.21586500000000003 -0.20326428571428573 0.302185l-3.9092485714285714 3.9278571428571434Z" stroke-width="1"></path></g></svg>