<svg xmlns="http://www.w3.org/2000/svg" viewBox="0 0 24 24"><g><path d="M6.35 12.15A.49.49 0 0 0 6 12H1.5A1.5 1.5 0 0 0 0 13.5V23a1 1 0 0 0 1 1h5a.5.5 0 0 0 .5-.5v-11a.49.49 0 0 0-.15-.36ZM4 21.75H2a.75.75 0 0 1 0-1.5h2a.75.75 0 0 1 0 1.5Zm0-3H2a.75.75 0 0 1 0-1.5h2a.75.75 0 0 1 0 1.5Zm0-3H2a.75.75 0 0 1 0-1.5h2a.75.75 0 0 1 0 1.5Z" fill="currentColor"></path><path d="M15.29 13.78a7.88 7.88 0 0 1-6.58 0 .51.51 0 0 0-.48 0 .5.5 0 0 0-.23.42v9.3a.5.5 0 0 0 .5.5H10a.5.5 0 0 0 .5-.5V22a.5.5 0 0 1 .5-.5h2a.5.5 0 0 1 .5.5v1.5a.5.5 0 0 0 .5.5h1.5a.5.5 0 0 0 .5-.5v-9.26a.5.5 0 0 0-.23-.42.51.51 0 0 0-.48-.04Zm-2.29 5h-2a.75.75 0 0 1 0-1.5h2a.75.75 0 0 1 0 1.5Z" fill="currentColor"></path><path d="M22.5 12H18a.49.49 0 0 0-.36.15.49.49 0 0 0-.15.36v11a.5.5 0 0 0 .5.5h5a1 1 0 0 0 1-1V13.5A1.5 1.5 0 0 0 22.5 12Zm-.5 9.75h-2a.75.75 0 0 1 0-1.5h2a.75.75 0 0 1 0 1.5Zm0-3h-2a.75.75 0 0 1 0-1.5h2a.75.75 0 0 1 0 1.5Zm0-3h-2a.75.75 0 0 1 0-1.5h2a.75.75 0 0 1 0 1.5Z" fill="currentColor"></path><path d="M12 0a6.5 6.5 0 1 0 6.5 6.5A6.51 6.51 0 0 0 12 0Zm3.5 7.5a.5.5 0 0 1-.5.5h-1a.5.5 0 0 0-.5.5v1a.5.5 0 0 1-.5.5h-2a.5.5 0 0 1-.5-.5v-1A.5.5 0 0 0 10 8H9a.5.5 0 0 1-.5-.5v-2A.5.5 0 0 1 9 5h1a.5.5 0 0 0 .5-.5v-1A.5.5 0 0 1 11 3h2a.51.51 0 0 1 .5.5v1a.51.51 0 0 0 .5.5h1a.5.5 0 0 1 .5.5Z" fill="currentColor"></path></g></svg>