<svg xmlns="http://www.w3.org/2000/svg" viewBox="0 0 24 24"><g><path d="M16 15.5a.2.2 0 0 0-.18-.2.22.22 0 0 1-.08-.39A7 7 0 0 0 19 9V7A7 7 0 0 0 5 7v2a7 7 0 0 0 3.16 5.85.24.24 0 0 1 .11.26.23.23 0 0 1-.2.19c-.44.07-.86.16-1.26.25a.75.75 0 0 0-1.5 0v3.72a.25.25 0 0 1-.15.23 2.25 2.25 0 1 0 1.8 0 .25.25 0 0 1-.15-.23v-1.46a.26.26 0 0 1 .19-.25 20.94 20.94 0 0 1 4-.56.24.24 0 0 1 .18.07.25.25 0 0 1 .08.18V23a.75.75 0 0 0 1.5 0v-5.71a.25.25 0 0 1 .08-.18A.24.24 0 0 1 13 17a21 21 0 0 1 2.7.25.24.24 0 0 0 .2-.06.22.22 0 0 0 .1-.19ZM6 22.25a.75.75 0 1 1 .75-.75.76.76 0 0 1-.75.75ZM7 9v-.95a.25.25 0 0 1 .24-.25A7 7 0 0 0 12 6.07a7 7 0 0 0 4.76 1.73.26.26 0 0 1 .24.25V9A5 5 0 0 1 7 9Z" fill="currentColor"></path><path d="M1.16 18A3 3 0 0 0 0 20.39V23a1 1 0 0 0 2 0v-2.61a1 1 0 0 1 .38-.78 9.94 9.94 0 0 1 1.73-1.05.26.26 0 0 0 .14-.22v-1.65a.23.23 0 0 0-.11-.2.26.26 0 0 0-.24 0A12.92 12.92 0 0 0 1.16 18Z" fill="currentColor"></path><path d="M22.84 18a13.61 13.61 0 0 0-4.16-2 .25.25 0 0 1-.18-.24v-.26a.75.75 0 0 0-1.5 0v4.2a.24.24 0 0 1-.16.23 2.5 2.5 0 0 0-1.59 2.32V23a.75.75 0 0 0 1.5 0v-.75a1 1 0 0 1 2 0V23a.75.75 0 0 0 1.5 0v-.75a2.5 2.5 0 0 0-1.59-2.32.24.24 0 0 1-.16-.23v-1.35a.23.23 0 0 1 .11-.2.24.24 0 0 1 .23 0 10.77 10.77 0 0 1 2.78 1.49 1 1 0 0 1 .38.78V23a1 1 0 0 0 2 0v-2.61A3 3 0 0 0 22.84 18Z" fill="currentColor"></path><path d="M13 9.25a1 1 0 1 0 2 0 1 1 0 1 0-2 0" fill="currentColor"></path><path d="M9 9.25a1 1 0 1 0 2 0 1 1 0 1 0-2 0" fill="currentColor"></path><path d="M13 12.74a1.63 1.63 0 0 0 .43-.18.64.64 0 0 0 .32-.72.65.65 0 0 0-.62-.48h-2a.63.63 0 0 0-.62.48.65.65 0 0 0 .31.72 1.7 1.7 0 0 0 .44.18 3 3 0 0 0 1.74 0Z" fill="currentColor"></path></g></svg>