<svg xmlns="http://www.w3.org/2000/svg" viewBox="0 0 24 24"><path d="M24 6.59A1 1 0 0 0 22.68 6a.54.54 0 0 1-.58-.14L18.17 1.9a.54.54 0 0 1-.17-.58 1 1 0 0 0-.59-1.27 1 1 0 0 0-1.27.63 8.92 8.92 0 0 0 .24 6.41 6.89 6.89 0 0 1 .3 4.52.24.24 0 0 1-.18.18.27.27 0 0 1-.24-.06l-4-4a.24.24 0 0 1-.07-.24.25.25 0 0 1 .18-.18 7 7 0 0 1 1.71-.24 1 1 0 0 0 1-1 1 1 0 0 0-1-1 9.21 9.21 0 0 0-6.32 2.69 9.11 9.11 0 0 0-2 9.94 6.45 6.45 0 0 1 .42 1.3.23.23 0 0 1-.12.27.26.26 0 0 1-.3 0l-1.64-1.71a.26.26 0 0 1 0-.32 1 1 0 0 0 .18-.61 1 1 0 0 0-1-1 8.51 8.51 0 0 0-2.6.47 1 1 0 0 0-.63 1.27 1 1 0 0 0 1.25.63.54.54 0 0 1 .58.14l3.93 3.96a.54.54 0 0 1 .14.58 1 1 0 1 0 1.89.64 8.92 8.92 0 0 0-.24-6.41 6.89 6.89 0 0 1-.3-4.52.24.24 0 0 1 .18-.18.27.27 0 0 1 .24.06l4 4a.24.24 0 0 1 .07.24.25.25 0 0 1-.18.18 7 7 0 0 1-1.71.24 1 1 0 0 0-1 1 1 1 0 0 0 1 1 9.14 9.14 0 0 0 8.3-12.63 6.45 6.45 0 0 1-.4-1.3.23.23 0 0 1 .12-.27.26.26 0 0 1 .3 0l1.64 1.64a.26.26 0 0 1 0 .32 1 1 0 0 0-.18.61 1 1 0 0 0 1 1 9 9 0 0 0 2.56-.47A1 1 0 0 0 24 6.59Zm-8.61 7.67a6.89 6.89 0 0 1-1.08 1.08.5.5 0 0 1-.67 0L8.7 10.41a.5.5 0 0 1 0-.67 6.89 6.89 0 0 1 1.04-1.08.5.5 0 0 1 .67 0l4.89 4.89a.5.5 0 0 1 .04.71Z" fill="currentColor"></path></svg>